<!-- Generated by IcoMoon.io -->
<svg version="1.1" xmlns="http://www.w3.org/2000/svg" width="32" height="32" viewBox="0 0 32 32">
<title>linkedin</title>
<path d="M26.661 21.333h0.005v-7.827c0-3.827-0.824-6.776-5.299-6.776-2.151 0-3.595 1.181-4.184 2.3h-0.063v-1.941h-4.241v14.244h4.419v-7.053c0-1.856 0.352-3.651 2.651-3.651 2.267 0 2.3 2.119 2.3 3.771v6.933h4.413zM5.685 7.091h4.423v14.243h-4.423v-14.243zM7.895 0c-1.413 0-2.56 1.147-2.56 2.561 0 1.413 1.147 2.587 2.56 2.587 1.415 0 2.563-1.173 2.563-2.587s-1.151-2.561-2.564-2.561z"></path>
</svg>
